<svg width="24" height="24" viewBox="0 0 24 24" fill="none" xmlns="http://www.w3.org/2000/svg">
    <path d="M12 11.7813C14.2236 11.7813 16.0264 9.59171 16.0264 6.89069C16.0264 4.1896 15.4345 2 12 2C8.56539 2 7.97339 4.1896 7.97339 6.89069C7.97339 9.59171 9.77619 11.7813 12 11.7813Z" fill="#041133"/>
    <path d="M4.39484 19.2487C4.39415 19.084 4.39346 19.2023 4.39484 19.2487V19.2487Z" fill="#041133"/>
    <path d="M19.605 19.3771C19.6071 19.332 19.6057 19.0643 19.605 19.3771V19.3771Z" fill="#041133"/>
    <path d="M19.5963 19.0512C19.5217 14.3459 18.9072 13.0052 14.2048 12.1565C14.2048 12.1565 13.5428 13 12 13C10.4571 13 9.79506 12.1565 9.79506 12.1565C5.14392 12.9959 4.49203 14.3168 4.40632 18.8983C4.39929 19.2724 4.39603 19.2921 4.39478 19.2487C4.39506 19.33 4.3954 19.4806 4.3954 19.743C4.3954 19.743 5.51495 21.9999 12 21.9999C18.4849 21.9999 19.6046 19.743 19.6046 19.743C19.6046 19.5744 19.6047 19.4571 19.6048 19.3774C19.6036 19.4042 19.6011 19.3522 19.5963 19.0512Z" fill="#041133"/>
</svg>
